<svg xmlns="http://www.w3.org/2000/svg" viewBox="0 0 978 978" width="128" height="128">
  <path
    d="M345.4 83.43c4.71-7.65 13.67-11.83 22.49-11.95 20.35-.09 40.71.01 61.07-.05 6.19-.08 12.78.1 18.27 3.35 8.65 4.64 14.01 14.47 13.76 24.2.02 112.67 0 225.35.01 338.02-.04 4.2.21 8.44-.52 12.61-1.81 7.56-6.46 14.87-13.7 18.2-3.97 1.98-8.3 3.31-12.77 3.17-22.01.04-44.01.03-66.02.01-11.75.2-23.08-8.22-26.22-19.55-1.13-5.89-1.33-11.91-1.75-17.88-18.58 18.95-43.34 31.95-69.7 35.54-28.11 4.61-57.39.47-83.52-10.71-18.64-7.43-35.73-18.36-51.18-31.09-11.17-9.83-21.95-20.22-30.85-32.2a205.77 205.77 0 01-41.67-98.08c-2.73-22.87-2.21-46.34 3.26-68.79 6.69-30.48 20.94-59.12 40.43-83.44 27.27-34.46 66.01-60.52 109.19-69.9 19.7-4.4 40.2-4.17 60.03-.79 24.13 5.02 46.83 17.13 64.01 34.87.86-8.6-.1-18.22 5.38-25.54m-95.1 108.75c-9.67 1.5-19.25 4.36-27.74 9.3-20.18 10.94-34.95 31.17-39.48 53.65-6.27 28.77 5.24 60.38 28.39 78.54 13.74 10.71 31.03 17.26 48.53 17.28 18.93.5 37.93-6.4 52.45-18.49 14.96-12.21 24.62-30.27 27.7-49.23 2.16-14.94.31-30.53-6.06-44.27-8.15-19.46-24.86-34.82-44.45-42.34-12.52-4.53-26.11-6.45-39.34-4.44zM691.51 72.71c35.86-3.92 72.92 1.55 105.64 16.94a196.7 196.7 0 0157.01 39.23c11.39 11.81 22.04 24.46 30.45 38.61a204.51 204.51 0 0122.56 52.5c11.54 43.66 7.97 91.26-10.69 132.46a201.42 201.42 0 01-67.76 82.26c-33.89 23.79-75.24 37.02-116.71 36.26-40.87-.02-81.33-13.73-114.47-37.49-20.84-15.28-39.34-34.06-52.81-56.2a198.2 198.2 0 01-30.43-111.27c.82-40.24 14.5-80.04 38.3-112.45 32.29-44.78 83.99-74.96 138.91-80.85m8.88 119.89c-28.49 4.64-53.4 26.08-62.14 53.6a78.68 78.68 0 00-.39 48.86 79.18 79.18 0 0035.3 44.74c11.52 6.55 24.53 10.92 37.86 11.12 19.8.9 39.82-6.19 54.86-19.03 25.91-21.56 35.3-60.57 21.61-91.45-7.94-19.91-24.66-35.82-44.52-43.61-13.52-5.02-28.34-6.88-42.58-4.23zM99.55 537.68c26.13-.55 52.3-.06 78.45-.25 7.84-.2 16.23 1.9 21.79 7.76 5.73 5.4 7.85 13.33 9.14 20.85 8.94 42.79 28.63 83.06 55.75 117.27 23.11 28.73 51.67 53.14 83.91 71.08a282.5 282.5 0 00135.43 35.99c42.13.78 84.33-8.33 122.64-25.77 30.94-14.44 59.49-34.14 83.46-58.49 11.68-11.1 21.42-24.01 30.97-36.93 20.65-29.17 35.32-62.38 43.92-97.02 2.07-7.75 2.22-16.35 6.96-23.12 3.23-3.83 6.92-7.59 11.71-9.4a32.63 32.63 0 0112.26-2.21h75.12c6.41-.02 13.1 1.23 18.26 5.25 8.06 5.5 12.12 15.8 10.66 25.36a445.3 445.3 0 01-17.83 74.23 815.54 815.54 0 01-12.92 32.97c-10.13 21.8-21.47 43.08-34.79 63.11-24.74 37.03-55.61 69.89-90.66 97.34a419.8 419.8 0 01-137.39 70.93c-65.53 19.24-135.81 22.43-202.73 8.57-68.93-13.72-133.85-46.06-187.14-91.76a476.03 476.03 0 01-39.08-37.94c-14.44-16.45-28.11-33.64-39.91-52.1-7.18-10.43-13-21.71-19.09-32.79-10.46-18.89-18.25-39.09-25.69-59.32-6.88-21.3-12.96-42.95-16.25-65.13-1.21-6.8-2.52-14.01-.09-20.7 3.17-9.95 12.75-17.18 23.14-17.78z"
    fill="#12c35a"/>
</svg>
