<svg id="Livello_1" data-name="Livello 1" xmlns="http://www.w3.org/2000/svg" xmlns:xlink="http://www.w3.org/1999/xlink" viewBox="0 0 284.15 284.17"><defs><style>.cls-1{fill:url(#linear-gradient);}.cls-2{fill:url(#linear-gradient-2);}.cls-3{fill:url(#linear-gradient-3);}.cls-4{fill:#862723;}.cls-5{fill:#fff;}.cls-6{fill:#5b6670;}</style><linearGradient id="linear-gradient" x1="-0.62" y1="142.09" x2="283.53" y2="142.09" gradientUnits="userSpaceOnUse"><stop offset="0" stop-color="#fff"/><stop offset="0" stop-color="#d82b3c"/><stop offset="0" stop-color="#d32b39"/><stop offset="0" stop-color="#d12b38"/><stop offset="0.44" stop-color="#c32a31"/><stop offset="0.5" stop-color="#bf2a30"/><stop offset="0.69" stop-color="#b52b2c"/><stop offset="0.83" stop-color="#af2a2a"/><stop offset="1" stop-color="#a72927"/><stop offset="1" stop-color="#862720"/></linearGradient><linearGradient id="linear-gradient-2" x1="49.76" y1="16.9" x2="275.54" y2="323.08" gradientUnits="userSpaceOnUse"><stop offset="0" stop-color="#fff"/><stop offset="0.51" stop-color="#e26978"/><stop offset="0.58" stop-color="#e26d7b"/><stop offset="0.64" stop-color="#e47883"/><stop offset="0.7" stop-color="#e68b92"/><stop offset="0.77" stop-color="#e9a6a6"/><stop offset="0.78" stop-color="#eaacaa"/><stop offset="0.79" stop-color="#e09896"/><stop offset="0.82" stop-color="#ce7674"/><stop offset="0.84" stop-color="#c05a58"/><stop offset="0.87" stop-color="#b54442"/><stop offset="0.91" stop-color="#ad3533"/><stop offset="0.94" stop-color="#a82c2a"/><stop offset="1" stop-color="#a72927"/><stop offset="1" stop-color="#862720"/></linearGradient><linearGradient id="linear-gradient-3" x1="51.49" y1="19.24" x2="273.05" y2="319.71" gradientUnits="userSpaceOnUse"><stop offset="0" stop-color="#fff"/><stop offset="0.22" stop-color="#d82b3c"/><stop offset="0.49" stop-color="#cb2a36"/><stop offset="1" stop-color="#a72927"/><stop offset="1" stop-color="#a72927"/><stop offset="1" stop-color="#862720"/></linearGradient></defs><path class="cls-1" d="M284.15,142.09A142.08,142.08,0,1,1,142.08,0,142.08,142.08,0,0,1,284.15,142.09Z" transform="translate(0 0)"/><path class="cls-2" d="M3.51,142.1A138.57,138.57,0,1,1,142.07,280.65,138.56,138.56,0,0,1,3.51,142.1Z" transform="translate(0 0)"/><path class="cls-3" d="M6.09,142.1a136,136,0,1,1,136,136,136,136,0,0,1-136-136Z" transform="translate(0 0)"/><path class="cls-4" d="M135.24,158.65c-7.53,2.19-13.76,9.85-15.46,18.49,0,.31-.11.63-.15.93h7.47a13.55,13.55,0,0,1,.31-3.17c1.24-6.29,4.5-8.63,6.43-9.2s4.64,0,3.41,6.33a15.32,15.32,0,0,1-2.43,6,7.91,7.91,0,0,1-4,3.15c-1.56.46-3.58.17-3.71-3.15h-7.47c-1.25,8,2.54,12.33,9.79,10.21,5-1.47,9.37-5.28,12.27-10.21a26.62,26.62,0,0,0,3.19-8.28C146.56,161.17,142.76,156.46,135.24,158.65Z" transform="translate(0 0)"/><polygon class="cls-4" points="199.97 166.57 217.31 161.25 219.21 152.7 210.04 156.08 210.8 152.46 218.43 150.12 219.7 142.64 212.25 145.56 212.87 141.91 221.76 138.66 223.32 131.22 206.42 136.33 199.97 166.57"/><path class="cls-4" d="M163.47,150.21c-7.51,2.2-13.76,9.86-15.44,18.48-.81,4.14-.36,7.38,1.16,9.39,1.65,2.17,4.57,2.9,8.47,1.76a17.85,17.85,0,0,0,4-1.76h0c5.65-3.3,10-9.69,11.43-16.72C174.81,152.73,171,148,163.47,150.21Zm2,13.38c-1.24,6.29-4.51,8.62-6.45,9.19s-4.63,0-3.39-6.32,4.5-8.62,6.43-9.21S166.73,157.28,165.49,163.59Z" transform="translate(0 0)"/><path class="cls-4" d="M254.27,130.07c1.13-5.49-2.39-7.16-7.14-5.86l-15.94,4.36-6.08,30,8.66-2.41,2.45-11.8,3.83-.38c3.31-.9,2.93,1.92,2.58,4.63a20.34,20.34,0,0,0-.25,4.28l8.36-2.3c-.48-1.12.21-4.58.39-6,.46-3.53-.38-5.84-2.46-6.15A13.49,13.49,0,0,0,254.27,130.07Zm-8.7,3.8c-.54,2.6-2.74,3.47-4.29,3.89l-4.39,1.2,1.23-5.78,3.91-1.06C245.23,131.25,246,132,245.57,133.87Z" transform="translate(0 0)"/><polygon class="cls-4" points="193.97 140.34 185.56 160.13 185.5 160.13 184.73 143.75 176.3 146.08 178.63 173.47 187.66 170.33 202.64 137.66 193.97 140.34"/><path class="cls-4" d="M21.32,146.35A123.74,123.74,0,1,1,145,270.08,123.72,123.72,0,0,1,21.32,146.35Zm234.06-33.27L118.59,156.49l-24.91,93a115.29,115.29,0,0,0,161.7-136.41ZM114.63,35.2,80.51,162.48,110.26,153l20.2-75.41,10-2.93-20.13,75.15,133.21-42.27a115.29,115.29,0,0,0-139-72.38ZM34,177.22,70.4,165.69,104.49,38.47A115.46,115.46,0,0,0,34,177.22ZM85.6,245.06l22.88-85.37-29.75,9.43-8.87,33.11-10,2.93,8.8-32.81-32.9,10.43A115.6,115.6,0,0,0,85.6,245.06Z" transform="translate(0 0)"/><path class="cls-5" d="M132,156.29c-7.51,2.19-13.76,9.83-15.45,18.49-.06.29-.14.7-.17,1h0c-1.21,8,2.58,12.22,9.81,10.12,5-1.46,9.37-5.28,12.27-10.2h0a27,27,0,0,0,3.19-8.28C143.28,158.8,139.46,154.1,132,156.29Zm2,13.36a15.46,15.46,0,0,1-2.41,6.06h0a7.9,7.9,0,0,1-4,3.15c-1.54.45-3.55.17-3.69-3.15h0a14.58,14.58,0,0,1,.31-3.16c1.24-6.31,4.5-8.64,6.44-9.22S135.2,163.36,134,169.65Z" transform="translate(0 0)"/><path class="cls-5" d="M251,127.7c1.13-5.49-2.37-7.18-7.14-5.87l-15.93,4.36-6.09,30,8.67-2.44L232.93,142l3.84-.37c3.3-.91,2.92,1.92,2.57,4.62a19.08,19.08,0,0,0-.25,4.28l8.37-2.29c-.48-1.12.21-4.57.39-6,.46-3.52-.39-5.82-2.47-6.14A13.48,13.48,0,0,0,251,127.7Zm-8.69,3.8c-.55,2.59-2.74,3.47-4.29,3.89l-4.38,1.2,1.21-5.77,3.92-1.09C241.93,128.86,242.67,129.65,242.29,131.5Z" transform="translate(0 0)"/><polygon class="cls-5" points="196.69 164.21 214.04 158.85 215.92 150.32 206.75 153.71 207.51 150.09 215.14 147.74 216.42 140.26 208.97 143.18 209.59 139.52 218.48 136.29 220.04 128.84 203.14 133.95 196.69 164.21"/><path class="cls-5" d="M160.19,147.84c-7.52,2.21-13.76,9.84-15.45,18.48-.81,4.15-.36,7.39,1.17,9.39,1.65,2.16,4.56,2.89,8.47,1.74a17.38,17.38,0,0,0,4-1.74h0A25.44,25.44,0,0,0,169.83,159C171.53,150.35,167.72,145.64,160.19,147.84Zm2,13.38c-1.23,6.29-4.51,8.63-6.44,9.2s-4.65,0-3.38-6.33,4.48-8.64,6.43-9.2S163.44,154.91,162.2,161.22Z" transform="translate(0 0)"/><polygon class="cls-5" points="190.68 137.97 182.28 157.77 182.21 157.78 181.45 141.4 173 143.71 175.35 171.09 184.37 167.96 199.35 135.28 190.68 137.97"/><path class="cls-5" d="M18,144A123.74,123.74,0,1,1,141.76,267.71,123.73,123.73,0,0,1,18,144ZM252.09,110.7,115.3,154.1l-24.92,93A115.28,115.28,0,0,0,252.09,110.7ZM111.34,32.82,77.23,160.12,107,150.67l20.2-75.4,10-3-20.13,75.15,133.2-42.26A115.33,115.33,0,0,0,111.34,32.82ZM30.75,174.87l36.37-11.54L101.21,36.1A115.39,115.39,0,0,0,30.75,174.87Zm51.58,67.82,22.86-85.37-29.74,9.43-8.88,33.09-10,2.95L65.35,170,32.44,180.4a115.57,115.57,0,0,0,49.89,62.29Z" transform="translate(0 0)"/><path class="cls-6" d="M268.88,259.71a10.28,10.28,0,1,1-.06,0Zm-.06,1.62a8.31,8.31,0,1,0,.06,0Zm-1.93,14.75h-1.83V264.54a20.33,20.33,0,0,1,3.26-.27,6.12,6.12,0,0,1,3.59.87,2.8,2.8,0,0,1,1,2.4,2.86,2.86,0,0,1-2.25,2.8v.09c1,.19,1.7,1.1,1.93,2.81a9.54,9.54,0,0,0,.74,2.84h-1.93a8.11,8.11,0,0,1-.78-2.94,2.17,2.17,0,0,0-2.49-2h-1.29Zm0-6.39h1.34c1.51,0,2.8-.55,2.8-2,0-1-.73-2-2.8-2a8.43,8.43,0,0,0-1.34.1Z" transform="translate(0 0)"/></svg>