<svg width="98" height="20" viewBox="0 0 98 20" fill="none" xmlns="http://www.w3.org/2000/svg">
<g clip-path="url(#clip0_1168:25354)">
<path fill-rule="evenodd" clip-rule="evenodd" d="M44.3789 5.40676C44.2235 4.54482 43.9101 3.63156 41.926 3.63156C39.9418 3.63156 39.6802 4.36781 39.6802 4.95014C39.6802 7.07935 48.3757 5.53503 48.3757 10.504C48.3757 14.4315 44.4592 15.1421 42.2912 15.1421C39.1311 15.1421 35.7119 14.0775 35.6057 10.4784H39.372C39.372 11.6174 40.1024 12.4562 42.4 12.4562C44.2805 12.4562 44.7312 11.5686 44.7312 11.0607C44.7312 8.80581 36.116 10.504 36.116 5.45807C36.116 3.48021 37.3956 0.945679 41.7291 0.945679C44.4463 0.945679 47.6867 1.60496 47.969 5.40676H44.3789Z" fill="#1D1D1B"/>
<path fill-rule="evenodd" clip-rule="evenodd" d="M68.901 14.7881H65.2409V6.59963C65.2409 4.59612 64.3292 3.93684 63.2568 3.93684C61.4307 3.93684 60.7779 5.10405 60.7779 6.69968V14.7881H57.1231V6.66377C57.1231 5.52477 57.1231 3.92657 54.9291 3.92657C53.204 3.92657 52.6574 5.09379 52.6574 6.56372V14.7727H49V1.29969H52.4994V3.27755H52.5513C53.0227 2.38995 54.0406 0.945679 56.4962 0.945679C58.5063 0.945679 59.418 1.65627 60.3583 3.10054C60.8297 2.44126 61.8477 0.945679 64.0675 0.945679C66.7821 0.945679 68.8984 2.48487 68.8984 5.45807V14.7881H68.901Z" fill="#1D1D1B"/>
<path fill-rule="evenodd" clip-rule="evenodd" d="M83.093 10.8324C82.1242 14.0775 79.3578 15.1421 76.9826 15.1421C73.0661 15.1421 70.064 13.3182 70.064 7.76429C70.064 6.14301 70.6364 0.945679 76.7209 0.945679C79.4614 0.945679 83.2484 2.21294 83.2484 8.38509V9.02129H73.7188C73.8224 10.0474 74.0323 12.3152 76.9826 12.3152C78.0005 12.3152 79.0548 11.8021 79.3319 10.8452L83.093 10.8324ZM79.4899 6.69968C79.2801 4.51916 77.8425 3.85988 76.6691 3.85988C74.9466 3.85988 74.0322 4.92705 73.8198 6.69968H79.4899Z" fill="#1D1D1B"/>
<path fill-rule="evenodd" clip-rule="evenodd" d="M98 0.8482V13.1335C98 15.3756 97.8186 19.1055 90.9778 19.1055C88.1052 19.1055 85.0771 17.9589 84.9191 15.2063H88.8874C89.0454 15.863 89.3329 16.5197 91.4466 16.5197C93.4048 16.5197 94.3451 15.6424 94.3451 13.5465V11.9868L94.2933 11.9381C93.6923 12.9385 92.778 13.8877 90.584 13.8877C87.2426 13.8877 84.6057 11.72 84.6057 7.18453C84.6057 2.70036 87.3203 0.514709 90.3768 0.514709C92.9671 0.514709 94.0032 1.9282 94.4487 2.78245H94.5031V0.8482H98ZM91.2653 11.0248C93.7442 11.0248 94.3736 9.05208 94.3736 7.27175C94.3736 5.17589 93.2779 3.46995 91.242 3.46995C89.8821 3.46995 88.3694 4.39603 88.3694 7.41797C88.3668 9.06234 89.105 11.0248 91.2653 11.0248Z" fill="#1D1D1B"/>
<path fill-rule="evenodd" clip-rule="evenodd" d="M8.90533 14.6957C8.90533 15.5679 8.64418 16.4205 8.15492 17.1457C7.66565 17.8708 6.97024 18.4361 6.15663 18.7698C5.34301 19.1036 4.44773 19.1909 3.58399 19.0208C2.72026 18.8506 1.92687 18.4306 1.30416 17.8139C0.681441 17.1972 0.257366 16.4114 0.0855587 15.556C-0.0862483 14.7006 0.00192925 13.814 0.338941 13.0082C0.675952 12.2024 1.24666 11.5137 1.9789 11.0291C2.71113 10.5446 3.57201 10.2859 4.45266 10.2859C5.63358 10.2859 6.76614 10.7506 7.60117 11.5775C8.43621 12.4045 8.90533 13.5262 8.90533 14.6957Z" fill="#1D1D1B"/>
<path fill-rule="evenodd" clip-rule="evenodd" d="M17.8106 14.6957C17.8106 15.5679 17.5495 16.4205 17.0602 17.1457C16.5709 17.8708 15.8755 18.4361 15.0619 18.7698C14.2483 19.1036 13.353 19.1909 12.4893 19.0208C11.6255 18.8506 10.8321 18.4306 10.2094 17.8139C9.58671 17.1972 9.16264 16.4114 8.99083 15.556C8.81903 14.7006 8.9072 13.814 9.24421 13.0082C9.58123 12.2024 10.1519 11.5137 10.8842 11.0291C11.6164 10.5446 12.4773 10.2859 13.3579 10.2859C13.9427 10.2859 14.5217 10.4 15.0619 10.6216C15.6021 10.8432 16.093 11.1681 16.5065 11.5775C16.9199 11.987 17.2479 12.4732 17.4717 13.0082C17.6954 13.5432 17.8106 14.1166 17.8106 14.6957Z" fill="#1D1D1B"/>
<path fill-rule="evenodd" clip-rule="evenodd" d="M26.7134 14.6957C26.7134 15.5679 26.4523 16.4205 25.963 17.1457C25.4738 17.8708 24.7783 18.4361 23.9647 18.7698C23.1511 19.1036 22.2558 19.1909 21.3921 19.0208C20.5284 18.8506 19.735 18.4306 19.1123 17.8139C18.4895 17.1972 18.0655 16.4114 17.8937 15.556C17.7219 14.7006 17.81 13.814 18.147 13.0082C18.4841 12.2024 19.0548 11.5137 19.787 11.0291C20.5192 10.5446 21.3801 10.2859 22.2608 10.2859C23.4417 10.2859 24.5742 10.7506 25.4093 11.5775C26.2443 12.4045 26.7134 13.5262 26.7134 14.6957Z" fill="#1D1D1B"/>
<path fill-rule="evenodd" clip-rule="evenodd" d="M17.8106 5.87621C17.8106 6.74838 17.5495 7.60096 17.0602 8.32615C16.5709 9.05133 15.8755 9.61654 15.0619 9.95031C14.2483 10.2841 13.353 10.3714 12.4893 10.2012C11.6255 10.0311 10.8321 9.61111 10.2094 8.99439C9.58671 8.37767 9.16264 7.59192 8.99083 6.73651C8.81903 5.8811 8.9072 4.99444 9.24421 4.18866C9.58123 3.38288 10.1519 2.69416 10.8842 2.20961C11.6164 1.72506 12.4773 1.46643 13.3579 1.46643C13.9427 1.46643 14.5217 1.58049 15.0619 1.8021C15.6021 2.02372 16.093 2.34854 16.5065 2.75802C16.9199 3.16751 17.2479 3.65364 17.4717 4.18866C17.6954 4.72368 17.8106 5.29711 17.8106 5.87621Z" fill="#1D1D1B"/>
<path fill-rule="evenodd" clip-rule="evenodd" d="M26.7134 5.87621C26.7134 6.74838 26.4523 7.60096 25.963 8.32615C25.4738 9.05133 24.7783 9.61654 23.9647 9.95031C23.1511 10.2841 22.2558 10.3714 21.3921 10.2012C20.5284 10.0311 19.735 9.61111 19.1123 8.99439C18.4895 8.37767 18.0655 7.59192 17.8937 6.73651C17.7219 5.8811 17.81 4.99444 18.147 4.18866C18.4841 3.38288 19.0548 2.69416 19.787 2.20961C20.5192 1.72506 21.3801 1.46643 22.2608 1.46643C23.4417 1.46643 24.5742 1.93103 25.4093 2.75802C26.2443 3.58502 26.7134 4.70666 26.7134 5.87621Z" fill="#1D1D1B"/>
<path fill-rule="evenodd" clip-rule="evenodd" d="M35.6187 5.87621C35.6187 6.74838 35.3576 7.60096 34.8683 8.32615C34.379 9.05133 33.6836 9.61654 32.87 9.95031C32.0564 10.2841 31.1611 10.3714 30.2974 10.2012C29.4336 10.0311 28.6403 9.61111 28.0175 8.99439C27.3948 8.37767 26.9707 7.59192 26.7989 6.73651C26.6271 5.8811 26.7153 4.99444 27.0523 4.18866C27.3893 3.38288 27.96 2.69416 28.6923 2.20961C29.4245 1.72506 30.2854 1.46643 31.166 1.46643C32.347 1.46643 33.4795 1.93103 34.3145 2.75802C35.1496 3.58502 35.6187 4.70666 35.6187 5.87621Z" fill="#1D1D1B"/>
</g>
<defs>
<clipPath id="clip0_1168:25354">
<rect width="98" height="18.5985" fill="white" transform="translate(0 0.507019)"/>
</clipPath>
</defs>
</svg>
